<mxfile host="65bd71144e">
    <diagram id="V1fu0R7PlsbDlqnDrgyP" name="Page-1">
        <mxGraphModel dx="2583" dy="3196" grid="1" gridSize="10" guides="1" tooltips="1" connect="1" arrows="1" fold="1" page="1" pageScale="1" pageWidth="850" pageHeight="1100" math="0" shadow="0">
            <root>
                <mxCell id="0"/>
                <mxCell id="1" parent="0"/>
                <mxCell id="54" style="edgeStyle=none;html=1;exitX=0.5;exitY=1;exitDx=0;exitDy=0;entryX=0.5;entryY=0;entryDx=0;entryDy=0;" edge="1" parent="1" source="2" target="51">
                    <mxGeometry relative="1" as="geometry"/>
                </mxCell>
                <mxCell id="55" style="edgeStyle=none;html=1;exitX=0.5;exitY=1;exitDx=0;exitDy=0;entryX=0.5;entryY=0;entryDx=0;entryDy=0;" edge="1" parent="1" source="2" target="53">
                    <mxGeometry relative="1" as="geometry"/>
                </mxCell>
                <mxCell id="2" value="check_server" style="ellipse;whiteSpace=wrap;html=1;fontSize=20;fontFamily=Tahoma;fontStyle=0;strokeColor=default;strokeWidth=1;shadow=0;fillOpacity=100;" parent="1" vertex="1">
                    <mxGeometry x="135" y="-1940" width="162" height="60" as="geometry"/>
                </mxCell>
                <mxCell id="7" style="edgeStyle=none;html=1;exitX=0.5;exitY=1;exitDx=0;exitDy=0;entryX=0.5;entryY=0;entryDx=0;entryDy=0;strokeColor=default;strokeWidth=1;shadow=0;fillOpacity=100;" parent="1" source="6" target="2" edge="1">
                    <mxGeometry relative="1" as="geometry"/>
                </mxCell>
                <mxCell id="6" value="start up" style="ellipse;whiteSpace=wrap;html=1;fontSize=20;fontFamily=Tahoma;fontStyle=0;strokeColor=default;strokeWidth=1;shadow=0;fillOpacity=100;" parent="1" vertex="1">
                    <mxGeometry x="156" y="-2020" width="120" height="50" as="geometry"/>
                </mxCell>
                <mxCell id="15" style="edgeStyle=none;html=1;exitX=0.5;exitY=1;exitDx=0;exitDy=0;strokeColor=default;strokeWidth=1;shadow=0;fillOpacity=100;" parent="1" source="8" target="12" edge="1">
                    <mxGeometry relative="1" as="geometry"/>
                </mxCell>
                <mxCell id="8" value="cache found" style="rounded=1;whiteSpace=wrap;html=1;fontSize=15;fontStyle=1;strokeColor=default;strokeWidth=1;shadow=0;fillOpacity=100;" parent="1" vertex="1">
                    <mxGeometry y="-1587.5" width="130" height="30" as="geometry"/>
                </mxCell>
                <mxCell id="14" style="edgeStyle=none;html=1;exitX=0.5;exitY=1;exitDx=0;exitDy=0;strokeColor=default;strokeWidth=1;shadow=0;fillOpacity=100;" parent="1" source="9" target="13" edge="1">
                    <mxGeometry relative="1" as="geometry"/>
                </mxCell>
                <mxCell id="9" value="cache not found" style="rounded=1;whiteSpace=wrap;html=1;fontSize=15;fontStyle=1;strokeColor=default;strokeWidth=1;shadow=0;fillOpacity=100;" parent="1" vertex="1">
                    <mxGeometry x="-290" y="-1587.5" width="150" height="30" as="geometry"/>
                </mxCell>
                <mxCell id="64" style="edgeStyle=none;html=1;exitX=0.5;exitY=1;exitDx=0;exitDy=0;entryX=0.5;entryY=0;entryDx=0;entryDy=0;" edge="1" parent="1" source="12" target="41">
                    <mxGeometry relative="1" as="geometry"/>
                </mxCell>
                <mxCell id="71" style="edgeStyle=none;html=1;exitX=0.554;exitY=1.034;exitDx=0;exitDy=0;entryX=0;entryY=0.75;entryDx=0;entryDy=0;exitPerimeter=0;" edge="1" parent="1" source="12" target="53">
                    <mxGeometry relative="1" as="geometry"/>
                </mxCell>
                <mxCell id="12" value="check_sub" style="rounded=1;whiteSpace=wrap;html=1;fontSize=15;fontStyle=1;strokeColor=default;strokeWidth=1;shadow=0;fillOpacity=100;" parent="1" vertex="1">
                    <mxGeometry y="-1507.5" width="130" height="30" as="geometry"/>
                </mxCell>
                <mxCell id="38" style="edgeStyle=none;html=1;exitX=0.5;exitY=1;exitDx=0;exitDy=0;entryX=0.5;entryY=0;entryDx=0;entryDy=0;" parent="1" source="13" target="18" edge="1">
                    <mxGeometry relative="1" as="geometry"/>
                </mxCell>
                <mxCell id="62" style="edgeStyle=none;html=1;exitX=0.5;exitY=1;exitDx=0;exitDy=0;entryX=0.5;entryY=0;entryDx=0;entryDy=0;" edge="1" parent="1" source="13" target="16">
                    <mxGeometry relative="1" as="geometry"/>
                </mxCell>
                <mxCell id="13" value="register_device" style="rounded=1;whiteSpace=wrap;html=1;fontSize=15;fontStyle=1;strokeColor=default;strokeWidth=1;shadow=0;fillOpacity=100;" parent="1" vertex="1">
                    <mxGeometry x="-290" y="-1507.5" width="150" height="31.2" as="geometry"/>
                </mxCell>
                <mxCell id="69" style="edgeStyle=none;html=1;exitX=0.5;exitY=1;exitDx=0;exitDy=0;entryX=0;entryY=0.5;entryDx=0;entryDy=0;" edge="1" parent="1" source="16" target="34">
                    <mxGeometry relative="1" as="geometry"/>
                </mxCell>
                <mxCell id="16" value="write cache" style="whiteSpace=wrap;html=1;fontSize=15;rounded=1;fontStyle=1;strokeColor=default;strokeWidth=1;shadow=0;fillOpacity=100;" parent="1" vertex="1">
                    <mxGeometry x="-410" y="-1375" width="130" height="35" as="geometry"/>
                </mxCell>
                <mxCell id="63" style="edgeStyle=none;html=1;exitX=0.5;exitY=0;exitDx=0;exitDy=0;entryX=0;entryY=0.5;entryDx=0;entryDy=0;" edge="1" parent="1" source="18" target="12">
                    <mxGeometry relative="1" as="geometry"/>
                </mxCell>
                <mxCell id="18" value="already exist" style="whiteSpace=wrap;html=1;fontSize=15;rounded=1;fontStyle=1;strokeColor=default;strokeWidth=1;shadow=0;fillOpacity=100;" parent="1" vertex="1">
                    <mxGeometry x="-170" y="-1375" width="130" height="35" as="geometry"/>
                </mxCell>
                <mxCell id="31" style="edgeStyle=none;html=1;exitX=0.5;exitY=1;exitDx=0;exitDy=0;entryX=0.5;entryY=0;entryDx=0;entryDy=0;strokeColor=default;strokeWidth=1;shadow=0;fillOpacity=100;" parent="1" source="21" target="30" edge="1">
                    <mxGeometry relative="1" as="geometry"/>
                </mxCell>
                <mxCell id="21" value="expired" style="whiteSpace=wrap;html=1;fontSize=15;rounded=1;fontStyle=1;strokeColor=default;strokeWidth=1;shadow=0;fillOpacity=100;" parent="1" vertex="1">
                    <mxGeometry x="-120" y="-1260" width="130" height="35" as="geometry"/>
                </mxCell>
                <mxCell id="26" style="edgeStyle=none;html=1;exitX=0.5;exitY=1;exitDx=0;exitDy=0;entryX=0.5;entryY=0;entryDx=0;entryDy=0;strokeColor=default;strokeWidth=1;shadow=0;fillOpacity=100;" parent="1" source="22" target="25" edge="1">
                    <mxGeometry relative="1" as="geometry"/>
                </mxCell>
                <mxCell id="22" value="ongoing" style="whiteSpace=wrap;html=1;fontSize=15;rounded=1;fontStyle=1;strokeColor=default;strokeWidth=1;shadow=0;fillOpacity=100;" parent="1" vertex="1">
                    <mxGeometry x="50" y="-1260" width="130" height="35" as="geometry"/>
                </mxCell>
                <mxCell id="25" value="&lt;font style=&quot;color: rgb(0, 0, 0);&quot;&gt;update_last&amp;nbsp;&lt;span style=&quot;background-color: transparent;&quot;&gt;c&lt;font style=&quot;color: rgb(0, 0, 0);&quot;&gt;on&lt;/font&gt;&lt;/span&gt;&lt;/font&gt;&lt;div&gt;&lt;span style=&quot;background-color: transparent;&quot;&gt;&lt;font style=&quot;color: rgb(0, 0, 0);&quot;&gt;(update cache)&lt;/font&gt;&lt;/span&gt;&lt;/div&gt;" style="whiteSpace=wrap;html=1;fontSize=15;rounded=1;fontStyle=1;strokeColor=default;strokeWidth=1;shadow=0;fillOpacity=100;" parent="1" vertex="1">
                    <mxGeometry x="40" y="-1170" width="150" height="50" as="geometry"/>
                </mxCell>
                <mxCell id="30" value="disable app" style="whiteSpace=wrap;html=1;fontSize=15;rounded=1;fontStyle=1;arcSize=50;strokeColor=default;strokeWidth=1;shadow=0;fillOpacity=100;fillColor=light-dark(#FFFFFF,#994C00);" parent="1" vertex="1">
                    <mxGeometry x="-120" y="-1180" width="130" height="35" as="geometry"/>
                </mxCell>
                <mxCell id="34" value="&lt;font style=&quot;color: rgb(0, 0, 0);&quot;&gt;&lt;b&gt;keep app running&lt;/b&gt;&lt;/font&gt;" style="rounded=1;whiteSpace=wrap;html=1;fontSize=20;arcSize=50;strokeColor=default;strokeWidth=1;shadow=0;fillOpacity=100;fillColor=light-dark(#FFFFFF,#009999);" parent="1" vertex="1">
                    <mxGeometry x="80" y="-970" width="210" height="60" as="geometry"/>
                </mxCell>
                <mxCell id="66" style="edgeStyle=none;html=1;exitX=0.5;exitY=1;exitDx=0;exitDy=0;" edge="1" parent="1" source="41" target="21">
                    <mxGeometry relative="1" as="geometry"/>
                </mxCell>
                <mxCell id="41" value="free trial" style="rounded=1;whiteSpace=wrap;html=1;fontSize=15;fontStyle=1;strokeColor=default;strokeWidth=1;shadow=0;fillOpacity=100;" parent="1" vertex="1">
                    <mxGeometry x="-20" y="-1367.5" width="140" height="37.5" as="geometry"/>
                </mxCell>
                <mxCell id="68" style="edgeStyle=none;html=1;exitX=0.5;exitY=1;exitDx=0;exitDy=0;entryX=0.5;entryY=0;entryDx=0;entryDy=0;" edge="1" parent="1" source="53" target="34">
                    <mxGeometry relative="1" as="geometry">
                        <mxPoint x="305" y="-1320" as="sourcePoint"/>
                    </mxGeometry>
                </mxCell>
                <mxCell id="57" style="edgeStyle=none;html=1;exitX=0.5;exitY=1;exitDx=0;exitDy=0;entryX=0.5;entryY=0;entryDx=0;entryDy=0;" edge="1" parent="1" source="51" target="56">
                    <mxGeometry relative="1" as="geometry"/>
                </mxCell>
                <mxCell id="51" value="free trial" style="rounded=1;whiteSpace=wrap;html=1;fontSize=15;fontStyle=1;strokeColor=default;strokeWidth=1;shadow=0;fillOpacity=100;" vertex="1" parent="1">
                    <mxGeometry x="-20" y="-1780" width="140" height="40" as="geometry"/>
                </mxCell>
                <mxCell id="53" value="licensed" style="rounded=1;whiteSpace=wrap;html=1;fontSize=15;fontStyle=1;strokeColor=default;strokeWidth=1;shadow=0;fillOpacity=100;" vertex="1" parent="1">
                    <mxGeometry x="190" y="-1477.5" width="140" height="40" as="geometry"/>
                </mxCell>
                <mxCell id="58" style="edgeStyle=none;html=1;exitX=0.5;exitY=1;exitDx=0;exitDy=0;entryX=0.5;entryY=0;entryDx=0;entryDy=0;" edge="1" parent="1" source="56" target="8">
                    <mxGeometry relative="1" as="geometry"/>
                </mxCell>
                <mxCell id="59" style="edgeStyle=none;html=1;exitX=0.5;exitY=1;exitDx=0;exitDy=0;entryX=0.5;entryY=0;entryDx=0;entryDy=0;" edge="1" parent="1" source="56" target="9">
                    <mxGeometry relative="1" as="geometry"/>
                </mxCell>
                <mxCell id="56" value="check_cache" style="rounded=1;whiteSpace=wrap;html=1;fontSize=15;fontStyle=1;strokeColor=default;strokeWidth=1;shadow=0;fillOpacity=100;" vertex="1" parent="1">
                    <mxGeometry x="-140" y="-1680" width="140" height="40" as="geometry"/>
                </mxCell>
                <mxCell id="65" style="edgeStyle=none;html=1;exitX=0.5;exitY=1;exitDx=0;exitDy=0;entryX=0.577;entryY=0.086;entryDx=0;entryDy=0;entryPerimeter=0;" edge="1" parent="1" source="41" target="22">
                    <mxGeometry relative="1" as="geometry"/>
                </mxCell>
                <mxCell id="70" style="edgeStyle=none;html=1;exitX=0.5;exitY=1;exitDx=0;exitDy=0;entryX=0.364;entryY=0.062;entryDx=0;entryDy=0;entryPerimeter=0;" edge="1" parent="1" source="25" target="34">
                    <mxGeometry relative="1" as="geometry"/>
                </mxCell>
            </root>
        </mxGraphModel>
    </diagram>
</mxfile>